<svg version="1.1" id="Layer_1" xmlns="http://www.w3.org/2000/svg" xmlns:xlink="http://www.w3.org/1999/xlink" x="0px" y="0px"
	 width="100%" viewBox="0 0 500 500" enable-background="new 0 0 500 500" xml:space="preserve">
<path fill="#000000" opacity="1.000000" stroke="none" 
	d="
M1.000000,174.000000 
	C1.000000,116.014359 1.000000,58.528713 1.000000,1.021535 
	C167.610703,1.021535 334.221405,1.021535 500.916046,1.021535 
	C500.916046,167.569046 500.916046,334.138153 500.916046,500.853638 
	C334.333435,500.853638 167.666733,500.853638 1.000000,500.853638 
	C1.000000,392.111816 1.000000,283.305908 1.000000,174.000000 
M416.615753,63.270847 
	C414.959839,63.186466 413.303925,63.029114 411.647980,63.028347 
	C367.186676,63.007751 322.725342,62.999237 278.264038,62.996960 
	C215.652222,62.993755 153.040375,62.987553 90.428619,63.048351 
	C88.704727,63.050026 86.981560,63.802258 85.065063,64.885757 
	C85.099823,65.588539 85.134590,66.291328 85.058395,67.868599 
	C85.399681,72.971947 85.613327,78.087677 86.107353,83.176201 
	C87.348091,95.956139 88.847694,108.711906 89.995567,121.499626 
	C91.175537,134.644882 91.905991,147.830826 93.116203,160.972916 
	C94.610069,177.195343 96.483871,193.382492 98.030075,209.600464 
	C99.469543,224.698807 100.683495,239.818573 102.017128,254.927109 
	C103.350464,270.032288 104.701080,285.135956 106.058670,300.238953 
	C107.710541,318.615814 109.448845,336.985229 111.014290,355.369446 
	C112.148598,368.690308 112.907715,382.045227 114.222176,395.346619 
	C114.449730,397.649353 116.162552,401.155457 117.955147,401.734406 
	C129.633469,405.505890 141.510117,408.670044 153.346207,411.944977 
	C182.845596,420.107178 212.351028,428.247803 241.874237,436.323212 
	C245.439972,437.298492 249.474747,439.160797 252.705887,438.330536 
	C272.010803,433.370087 291.131531,427.696442 310.337555,422.346436 
	C333.638000,415.855804 356.950684,409.408264 380.282104,403.029938 
	C387.502991,401.055878 387.632751,400.794189 388.010437,393.428772 
	C388.475311,384.363159 389.249268,375.310059 390.051941,366.265930 
	C391.288666,352.330719 392.704803,338.411530 393.963867,324.478210 
	C394.720551,316.104828 395.251892,307.710999 396.011658,299.337921 
	C397.276184,285.401917 398.694763,271.479889 399.947540,257.542877 
	C400.730347,248.834274 401.245178,240.101608 402.027832,231.392990 
	C403.280334,217.455627 404.695862,203.532990 405.963287,189.596909 
	C406.725281,181.219055 407.267944,172.821259 408.032013,164.443604 
	C409.302917,150.507996 410.705780,136.584427 411.988098,122.649811 
	C412.744324,114.432487 413.362701,106.202568 414.065765,97.980240 
	C414.976715,87.326225 415.910248,76.674133 416.946716,65.397018 
	C416.886505,64.980827 416.826294,64.564636 416.615753,63.270847 
z"/>
<path fill="#1573B6" opacity="1.000000" stroke="none" 
	d="
M416.834076,66.021217 
	C415.910248,76.674133 414.976715,87.326225 414.065765,97.980240 
	C413.362701,106.202568 412.744324,114.432487 411.988098,122.649811 
	C410.705780,136.584427 409.302917,150.507996 408.032013,164.443604 
	C407.267944,172.821259 406.725281,181.219055 405.963287,189.596909 
	C404.695862,203.532990 403.280334,217.455627 402.027832,231.392990 
	C401.245178,240.101608 400.730347,248.834274 399.947540,257.542877 
	C398.694763,271.479889 397.276184,285.401917 396.011658,299.337921 
	C395.251892,307.710999 394.720551,316.104828 393.963867,324.478210 
	C392.704803,338.411530 391.288666,352.330719 390.051941,366.265930 
	C389.249268,375.310059 388.475311,384.363159 388.010437,393.428772 
	C387.632751,400.794189 387.502991,401.055878 380.282104,403.029938 
	C356.950684,409.408264 333.638000,415.855804 310.337555,422.346436 
	C291.131531,427.696442 272.010803,433.370087 252.705887,438.330536 
	C249.474747,439.160797 245.439972,437.298492 241.874237,436.323212 
	C212.351028,428.247803 182.845596,420.107178 153.346207,411.944977 
	C141.510117,408.670044 129.633469,405.505890 117.955147,401.734406 
	C116.162552,401.155457 114.449730,397.649353 114.222176,395.346619 
	C112.907715,382.045227 112.148598,368.690308 111.014290,355.369446 
	C109.448845,336.985229 107.710541,318.615814 106.058670,300.238953 
	C104.701080,285.135956 103.350464,270.032288 102.017128,254.927109 
	C100.683495,239.818573 99.469543,224.698807 98.030075,209.600464 
	C96.483871,193.382492 94.610069,177.195343 93.116203,160.972916 
	C91.905991,147.830826 91.175537,134.644882 89.995567,121.499626 
	C88.847694,108.711906 87.348091,95.956139 86.107353,83.176201 
	C85.613327,78.087677 85.399681,72.971947 85.387161,67.173561 
	C87.920532,65.986084 90.124855,65.064293 92.329781,65.062843 
	C197.704788,64.993622 303.079834,64.996201 408.454834,65.047958 
	C411.248077,65.049332 414.041016,65.682617 416.834076,66.021217 
M230.053543,183.053162 
	C230.053543,183.053162 230.210037,183.117020 229.617172,183.217239 
	C229.100098,183.495239 228.583023,183.773224 227.877151,184.242874 
	C227.877151,184.242874 227.681747,184.057953 227.114487,184.309113 
	C226.751083,184.504059 226.387680,184.699005 225.437500,185.304932 
	C212.596695,190.817673 199.755875,196.330414 186.290100,201.862961 
	C185.769730,202.178741 185.249359,202.494522 184.919846,202.877579 
	C184.919846,202.877579 184.985886,202.686325 184.303650,202.738876 
	C183.526047,203.138779 182.748444,203.538681 181.960327,203.957596 
	C181.960327,203.957596 181.938583,203.956070 181.297470,203.982513 
	C180.538864,204.357040 179.780258,204.731567 178.445679,205.115204 
	C177.960083,205.381058 177.474487,205.646927 176.243607,205.990463 
	C170.368332,208.521576 164.493057,211.052689 158.775940,213.583801 
	C158.775940,213.583801 158.771927,213.425690 158.091690,213.535339 
	C157.081848,214.030060 156.072006,214.524765 154.459930,215.042984 
	C153.958405,215.353256 153.456879,215.663528 152.181900,216.359787 
	C153.022018,229.753525 153.862137,243.147263 154.737244,257.098755 
	C159.891663,257.098755 164.514740,257.077087 169.137558,257.102295 
	C196.431549,257.251099 223.725494,257.410828 251.018997,258.433014 
	C251.097961,280.591614 251.176926,302.750183 250.444855,325.195282 
	C234.983536,321.479828 219.522217,317.764343 204.142517,314.068512 
	C203.093155,302.364441 202.106018,291.354401 201.120178,280.358795 
	C186.470520,280.358795 172.545319,280.358795 158.611694,280.358795 
	C158.400177,281.065979 158.112518,281.535370 158.148376,281.978607 
	C159.784744,302.201660 161.382355,322.428680 163.257065,342.629913 
	C163.386200,344.021423 165.389282,345.947205 166.889603,346.398376 
	C194.910782,354.824799 222.987869,363.065277 251.031372,372.238556 
	C251.024872,384.399963 251.115738,396.562653 250.959152,408.722137 
	C250.904221,412.988037 252.047119,414.455688 256.510986,413.055817 
	C264.929291,410.415771 273.475464,408.180939 281.979279,405.816498 
	C307.810211,398.634216 333.638885,391.443420 359.489288,384.331635 
	C362.957855,383.377380 365.576569,382.135803 365.845917,377.909424 
	C366.395935,369.279327 367.236115,360.667419 367.978088,352.049896 
	C369.761871,331.332642 371.515869,310.612732 373.360016,289.900848 
	C375.513641,265.713287 377.777863,241.535599 379.942383,217.348999 
	C381.766235,196.969193 383.495300,176.580933 385.304230,156.199783 
	C387.216034,134.658966 389.111633,113.116280 391.170563,91.589348 
	C391.510010,88.040207 390.487823,86.910103 386.918457,86.917274 
	C343.436523,87.004623 299.954224,87.012581 256.472351,86.909798 
	C252.387451,86.900139 250.860748,88.214752 250.941986,92.377174 
	C251.149963,103.035370 251.055237,113.700752 250.968887,124.362350 
	C250.951706,126.484718 250.432877,128.603012 249.169678,130.801270 
	C218.706696,130.773834 188.243713,130.746399 157.687332,130.547562 
	C157.466599,130.459000 157.308868,130.515396 156.260208,130.779846 
	C152.428879,130.768387 148.597549,130.756943 144.665497,130.573441 
	C144.440445,130.487274 144.274628,130.544403 143.389069,131.129562 
	C144.872559,143.302856 146.356049,155.476151 147.705444,167.585449 
	C147.705444,167.585449 147.628815,167.712769 147.631454,168.578537 
	C147.770813,169.702255 147.910172,170.825974 148.148697,172.494888 
	C148.442505,172.712769 148.736298,172.930649 149.775116,173.485825 
	C151.913559,173.657578 154.051834,173.976212 156.190491,173.978836 
	C184.409134,174.013535 212.627838,174.003754 240.846527,174.005066 
	C242.580078,174.005157 244.313644,174.005066 246.536743,174.005066 
	C244.425262,175.891953 242.886429,177.267120 241.357239,178.558975 
	C241.357239,178.558975 241.439636,178.574478 240.689850,178.408249 
	C238.794510,179.312241 236.899185,180.216232 235.039261,181.034729 
	C235.039261,181.034729 235.124588,181.070526 234.438766,181.116653 
	C233.661896,181.543716 232.885025,181.970779 232.136597,182.229462 
	C232.136597,182.229462 232.304581,182.260208 231.670334,182.337662 
	C231.110306,182.628403 230.550278,182.919144 230.053543,183.053162 
z"/>
<path fill="#1967A1" opacity="1.000000" stroke="none" 
	d="
M416.890381,65.709122 
	C414.041016,65.682617 411.248077,65.049332 408.454834,65.047958 
	C303.079834,64.996201 197.704788,64.993622 92.329781,65.062843 
	C90.124855,65.064293 87.920532,65.986084 85.442642,66.736313 
	C85.134590,66.291328 85.099823,65.588539 85.604355,64.460724 
	C98.629143,64.026665 111.114632,64.011810 123.600121,64.009598 
	C191.690613,63.997494 259.781128,63.970531 327.871613,63.986759 
	C357.503113,63.993824 387.134613,64.091766 416.766113,64.148438 
	C416.826294,64.564636 416.886505,64.980827 416.890381,65.709122 
z"/>
<path fill="#7EB3DB" opacity="1.000000" stroke="none" 
	d="
M416.690918,63.709641 
	C387.134613,64.091766 357.503113,63.993824 327.871613,63.986759 
	C259.781128,63.970531 191.690613,63.997494 123.600121,64.009598 
	C111.114632,64.011810 98.629143,64.026665 85.700851,64.120087 
	C86.981560,63.802258 88.704727,63.050026 90.428619,63.048351 
	C153.040375,62.987553 215.652222,62.993755 278.264038,62.996960 
	C322.725342,62.999237 367.186676,63.007751 411.647980,63.028347 
	C413.303925,63.029114 414.959839,63.186466 416.690918,63.709641 
z"/>
<path fill="#38A8DB" opacity="1.000000" stroke="none" 
	d="
M250.145370,130.723190 
	C250.432877,128.603012 250.951706,126.484718 250.968887,124.362350 
	C251.055237,113.700752 251.149963,103.035370 250.941986,92.377174 
	C250.860748,88.214752 252.387451,86.900139 256.472351,86.909798 
	C299.954224,87.012581 343.436523,87.004623 386.918457,86.917274 
	C390.487823,86.910103 391.510010,88.040207 391.170563,91.589348 
	C389.111633,113.116280 387.216034,134.658966 385.304230,156.199783 
	C383.495300,176.580933 381.766235,196.969193 379.942383,217.348999 
	C377.777863,241.535599 375.513641,265.713287 373.360016,289.900848 
	C371.515869,310.612732 369.761871,331.332642 367.978088,352.049896 
	C367.236115,360.667419 366.395935,369.279327 365.845917,377.909424 
	C365.576569,382.135803 362.957855,383.377380 359.489288,384.331635 
	C333.638885,391.443420 307.810211,398.634216 281.979279,405.816498 
	C273.475464,408.180939 264.929291,410.415771 256.510986,413.055817 
	C252.047119,414.455688 250.904221,412.988037 250.959152,408.722137 
	C251.115738,396.562653 251.024872,384.399963 251.002365,371.660645 
	C250.973358,371.082764 250.956070,370.809418 251.340942,370.888611 
	C278.841888,363.065063 305.926910,355.052216 333.109863,347.386566 
	C336.884735,346.322052 338.216522,344.624207 338.473816,341.030365 
	C339.114624,332.079742 339.959198,323.143524 340.741547,314.203217 
	C342.726227,291.523865 344.777954,268.850128 346.686340,246.164368 
	C347.506439,236.415955 348.037964,226.643265 348.410950,216.609192 
	C346.631134,216.241852 345.140991,216.064560 343.650757,216.064240 
	C315.490204,216.058243 287.329559,216.096298 259.169159,216.035507 
	C257.130127,216.031097 255.092606,215.339157 253.404968,214.914398 
	C270.960083,207.378448 288.164612,199.895004 305.343811,192.436539 
	C305.318512,192.461517 305.375183,192.504456 305.740845,192.441254 
	C320.594299,186.215973 335.104034,180.104279 349.535461,173.812851 
	C350.960388,173.191635 352.748047,171.585037 352.931396,170.240036 
	C353.846283,163.529068 354.281281,156.752670 354.993561,149.619049 
	C355.118774,147.923477 355.135529,146.608154 355.409607,144.971924 
	C356.145538,140.217529 356.624146,135.784088 357.128784,131.109100 
	C354.191071,131.109100 352.105408,131.109100 349.553162,131.049271 
	C318.387604,131.030304 287.688660,131.071167 256.562988,131.021027 
	C254.139343,130.861069 252.142349,130.792130 250.145370,130.723190 
z"/>
<path fill="#E7E8E9" opacity="1.000000" stroke="none" 
	d="
M253.054382,214.966904 
	C255.092606,215.339157 257.130127,216.031097 259.169159,216.035507 
	C287.329559,216.096298 315.490204,216.058243 343.650757,216.064240 
	C345.140991,216.064560 346.631134,216.241852 347.966187,216.653427 
	C317.687012,216.987106 287.562988,216.994186 257.438995,217.029327 
	C251.226532,217.036575 251.029572,217.265732 251.006104,223.546326 
	C250.965668,234.364029 250.950745,245.181839 250.461151,256.002625 
	C220.717621,256.002197 191.437790,255.937424 162.158783,256.061951 
	C157.806549,256.080475 156.073929,254.897339 155.832031,250.189590 
	C155.245071,238.765213 153.959457,227.376740 152.955353,215.973816 
	C153.456879,215.663528 153.958405,215.353256 155.008331,215.162964 
	C156.628464,214.663864 157.700195,214.044769 158.771927,213.425690 
	C158.771927,213.425690 158.775940,213.583801 159.106140,213.634262 
	C165.287186,211.094070 171.138046,208.503433 176.988892,205.912781 
	C177.474487,205.646927 177.960083,205.381058 178.963562,205.225555 
	C180.300507,204.875961 181.119537,204.416016 181.938583,203.956070 
	C181.938583,203.956070 181.960327,203.957596 182.299362,203.927460 
	C183.420883,203.493668 184.203384,203.089996 184.985886,202.686310 
	C184.985886,202.686325 184.919846,202.877579 185.131439,202.806458 
	C185.867020,202.437943 186.391037,202.140549 186.915054,201.843140 
	C199.755875,196.330414 212.596695,190.817673 226.061859,185.086090 
	C227.018051,184.597473 227.349899,184.327713 227.681747,184.057953 
	C227.681747,184.057953 227.877151,184.242874 228.275009,184.138199 
	C229.185257,183.728027 229.697647,183.422531 230.210037,183.117020 
	C230.210037,183.117020 230.053543,183.053162 230.347198,183.110397 
	C231.195450,182.865158 231.750015,182.562683 232.304581,182.260223 
	C232.304581,182.260208 232.136597,182.229462 232.460831,182.275772 
	C233.564911,181.904892 234.344742,181.487717 235.124588,181.070526 
	C235.124588,181.070526 235.039261,181.034729 235.379425,181.052490 
	C237.626266,180.238312 239.532944,179.406387 241.439636,178.574478 
	C241.439636,178.574478 241.357239,178.558975 241.715637,178.505219 
	C245.015594,177.305649 247.957169,176.159836 250.928009,175.475632 
	C250.994919,181.626328 251.032562,187.315414 251.056610,193.470917 
	C251.043762,198.957077 251.044510,203.976852 251.032623,209.391571 
	C251.698151,211.513306 252.376266,213.240112 253.054382,214.966904 
z"/>
<path fill="#E6E8E9" opacity="1.000000" stroke="none" 
	d="
M251.013290,371.213776 
	C222.987869,363.065277 194.910782,354.824799 166.889603,346.398376 
	C165.389282,345.947205 163.386200,344.021423 163.257065,342.629913 
	C161.382355,322.428680 159.784744,302.201660 158.148376,281.978607 
	C158.112518,281.535370 158.400177,281.065979 158.611694,280.358795 
	C172.545319,280.358795 186.470520,280.358795 201.120178,280.358795 
	C202.106018,291.354401 203.093155,302.364441 204.142517,314.068512 
	C219.522217,317.764343 234.983536,321.479828 251.133820,325.114563 
	C252.211182,325.071289 252.599579,325.108704 252.734161,325.424683 
	C251.986084,327.739655 251.086105,329.771576 251.063553,331.813202 
	C250.919983,344.810760 250.969894,357.810425 250.956070,370.809418 
	C250.956070,370.809418 250.973358,371.082764 251.013290,371.213776 
z"/>
<path fill="#E8E8E8" opacity="1.000000" stroke="none" 
	d="
M147.628815,167.712769 
	C147.628815,167.712769 147.705444,167.585449 147.834351,167.193390 
	C147.997604,166.518387 148.031982,166.235458 148.123993,165.845398 
	C148.249954,165.491333 148.205566,165.263794 148.037689,164.605850 
	C147.139496,155.898315 146.364838,147.626419 145.328262,139.387466 
	C144.523300,132.989273 145.180542,132.007950 151.581680,132.006165 
	C184.714401,131.996933 217.847107,132.013412 250.985352,132.456177 
	C251.015747,134.928040 251.040619,136.964645 251.056534,139.376389 
	C251.051514,140.501892 251.055466,141.252274 251.043701,142.401886 
	C251.040863,143.866257 251.053726,144.931366 251.053879,146.450897 
	C251.048355,149.939301 251.055527,152.973282 251.045334,156.472137 
	C251.010071,161.628540 250.992203,166.320099 250.507294,171.011627 
	C218.474823,171.003036 186.908859,171.070557 155.345016,170.844315 
	C152.765594,170.825821 150.200546,168.803833 147.628815,167.712769 
z"/>
<path fill="#3AA8DA" opacity="1.000000" stroke="none" 
	d="
M252.987961,325.146118 
	C252.599579,325.108704 252.211182,325.071289 251.539337,324.971313 
	C251.176926,302.750183 251.097961,280.591614 251.021652,257.851013 
	C251.024307,257.268982 250.989853,256.973053 251.445633,257.095520 
	C268.478333,257.217957 285.055267,257.217957 301.658691,257.217957 
	C301.837708,259.055695 302.028625,259.878235 301.980133,260.686401 
	C301.033508,276.453156 299.981262,292.214203 299.155701,307.987122 
	C298.989807,311.156403 297.872406,312.549255 294.762878,313.387482 
	C280.796234,317.152435 266.905853,321.200287 252.987961,325.146118 
z"/>
<path fill="#E5F8FF" opacity="1.000000" stroke="none" 
	d="
M147.630127,168.145660 
	C150.200546,168.803833 152.765594,170.825821 155.345016,170.844315 
	C186.908859,171.070557 218.474823,171.003036 250.508957,171.226913 
	C250.977676,171.442230 250.973969,171.873138 250.923691,172.151932 
	C250.914917,172.614975 250.956421,172.799210 250.548065,172.841904 
	C216.771637,172.659012 183.445099,172.617661 149.896790,172.413116 
	C149.133194,172.149841 148.591354,172.049774 148.049530,171.949692 
	C147.910172,170.825974 147.770813,169.702255 147.630127,168.145660 
z"/>
<path fill="#E0F8FE" opacity="1.000000" stroke="none" 
	d="
M148.066376,165.952530 
	C148.031982,166.235458 147.997604,166.518387 147.901398,167.225372 
	C146.356049,155.476151 144.872559,143.302856 143.926468,131.012482 
	C144.463867,130.895416 144.766220,130.745483 144.766220,130.745483 
	C148.597549,130.756943 152.428879,130.768387 156.876709,130.823257 
	C157.493195,130.866669 157.780731,130.718979 157.780731,130.718964 
	C188.243713,130.746399 218.706696,130.773834 249.657532,130.762238 
	C252.142349,130.792130 254.139343,130.861069 256.412750,131.184448 
	C256.469849,131.638489 256.239929,131.825043 255.581497,131.992432 
	C253.769012,131.997833 252.374420,132.009384 250.979828,132.020920 
	C217.847107,132.013412 184.714401,131.996933 151.581680,132.006165 
	C145.180542,132.007950 144.523300,132.989273 145.328262,139.387466 
	C146.364838,147.626419 147.139496,155.898315 148.039490,164.829666 
	C148.052002,165.503311 148.066376,165.952530 148.066376,165.952530 
z"/>
<path fill="#D5F1FE" opacity="1.000000" stroke="none" 
	d="
M152.568634,216.166794 
	C153.959457,227.376740 155.245071,238.765213 155.832031,250.189590 
	C156.073929,254.897339 157.806549,256.080475 162.158783,256.061951 
	C191.437790,255.937424 220.717621,256.002197 250.481552,256.245728 
	C250.965927,256.485840 250.989853,256.973053 250.989853,256.973053 
	C250.989853,256.973053 251.024307,257.268982 251.021881,257.417938 
	C223.725494,257.410828 196.431549,257.251099 169.137558,257.102295 
	C164.514740,257.077087 159.891663,257.098755 154.737244,257.098755 
	C153.862137,243.147263 153.022018,229.753525 152.568634,216.166794 
z"/>
<path fill="#1E6BA2" opacity="1.000000" stroke="none" 
	d="
M150.118561,172.576324 
	C183.445099,172.617661 216.771637,172.659012 250.526886,173.117737 
	C250.997742,173.714615 251.039917,173.894119 251.029556,174.307419 
	C250.977036,174.541214 250.898743,175.014038 250.898743,175.014038 
	C247.957169,176.159836 245.015594,177.305649 241.710800,178.546875 
	C242.886429,177.267120 244.425262,175.891953 246.536743,174.005066 
	C244.313644,174.005066 242.580078,174.005157 240.846527,174.005066 
	C212.627838,174.003754 184.409134,174.013535 156.190491,173.978836 
	C154.051834,173.976212 151.913559,173.657578 149.688354,173.200623 
	C149.773941,172.802383 149.946259,172.689346 150.118561,172.576324 
z"/>
<path fill="#D5F1FE" opacity="1.000000" stroke="none" 
	d="
M176.616241,205.951630 
	C171.138046,208.503433 165.287186,211.094070 159.027054,213.634277 
	C164.493057,211.052689 170.368332,208.521576 176.616241,205.951630 
z"/>
<path fill="#1E6BA2" opacity="1.000000" stroke="none" 
	d="
M241.064743,178.491364 
	C239.532944,179.406387 237.626266,180.238312 235.361725,181.095215 
	C236.899185,180.216232 238.794510,179.312241 241.064743,178.491364 
z"/>
<path fill="#D5F1FE" opacity="1.000000" stroke="none" 
	d="
M158.431808,213.480515 
	C157.700195,214.044769 156.628464,214.663864 155.309448,215.151215 
	C156.072006,214.524765 157.081848,214.030060 158.431808,213.480515 
z"/>
<path fill="#D5F1FE" opacity="1.000000" stroke="none" 
	d="
M181.618027,203.969299 
	C181.119537,204.416016 180.300507,204.875961 179.251556,205.220978 
	C179.780258,204.731567 180.538864,204.357040 181.618027,203.969299 
z"/>
<path fill="#1E6BA2" opacity="1.000000" stroke="none" 
	d="
M234.781677,181.093597 
	C234.344742,181.487717 233.564911,181.904892 232.446625,182.359955 
	C232.885025,181.970779 233.661896,181.543716 234.781677,181.093597 
z"/>
<path fill="#D5F1FE" opacity="1.000000" stroke="none" 
	d="
M184.644775,202.712585 
	C184.203384,203.089996 183.420883,203.493668 182.304626,203.917953 
	C182.748444,203.538681 183.526047,203.138779 184.644775,202.712585 
z"/>
<path fill="#1E6BA2" opacity="1.000000" stroke="none" 
	d="
M229.913605,183.167130 
	C229.697647,183.422531 229.185257,183.728027 228.369415,184.042358 
	C228.583023,183.773224 229.100098,183.495239 229.913605,183.167130 
z"/>
<path fill="#1E6BA2" opacity="1.000000" stroke="none" 
	d="
M231.987457,182.298950 
	C231.750015,182.562683 231.195450,182.865158 230.315552,183.188751 
	C230.550278,182.919144 231.110306,182.628403 231.987457,182.298950 
z"/>
<path fill="#D5F1FE" opacity="1.000000" stroke="none" 
	d="
M186.602570,201.853058 
	C186.391037,202.140549 185.867020,202.437943 185.036011,202.772827 
	C185.249359,202.494522 185.769730,202.178741 186.602570,201.853058 
z"/>
<path fill="#92BDD9" opacity="1.000000" stroke="none" 
	d="
M149.896790,172.413116 
	C149.946259,172.689346 149.773941,172.802383 149.315857,173.031967 
	C148.736298,172.930649 148.442505,172.712769 148.099121,172.222290 
	C148.591354,172.049774 149.133194,172.149841 149.896790,172.413116 
z"/>
<path fill="#1E6BA2" opacity="1.000000" stroke="none" 
	d="
M227.398117,184.183533 
	C227.349899,184.327713 227.018051,184.597473 226.355240,184.880600 
	C226.387680,184.699005 226.751083,184.504059 227.398117,184.183533 
z"/>
<path fill="#38A8DB" opacity="1.000000" stroke="none" 
	d="
M144.715851,130.659454 
	C144.766220,130.745483 144.463867,130.895416 144.315964,130.820129 
	C144.274628,130.544403 144.440445,130.487274 144.715851,130.659454 
z"/>
<path fill="#38A8DB" opacity="1.000000" stroke="none" 
	d="
M157.734039,130.633270 
	C157.780731,130.718979 157.493195,130.866669 157.353668,130.791718 
	C157.308868,130.515396 157.466599,130.459000 157.734039,130.633270 
z"/>
<path fill="#FCFEFE" opacity="1.000000" stroke="none" 
	d="
M251.445633,257.095520 
	C250.989853,256.973053 250.965927,256.485840 250.945526,256.242737 
	C250.950745,245.181839 250.965668,234.364029 251.006104,223.546326 
	C251.029572,217.265732 251.226532,217.036575 257.438995,217.029327 
	C287.562988,216.994186 317.687012,216.987106 348.255798,216.925842 
	C348.037964,226.643265 347.506439,236.415955 346.686340,246.164368 
	C344.777954,268.850128 342.726227,291.523865 340.741547,314.203217 
	C339.959198,323.143524 339.114624,332.079742 338.473816,341.030365 
	C338.216522,344.624207 336.884735,346.322052 333.109863,347.386566 
	C305.926910,355.052216 278.841888,363.065063 251.340942,370.888611 
	C250.969894,357.810425 250.919983,344.810760 251.063553,331.813202 
	C251.086105,329.771576 251.986084,327.739655 252.734161,325.424683 
	C266.905853,321.200287 280.796234,317.152435 294.762878,313.387482 
	C297.872406,312.549255 298.989807,311.156403 299.155701,307.987122 
	C299.981262,292.214203 301.033508,276.453156 301.980133,260.686401 
	C302.028625,259.878235 301.837708,259.055695 301.658691,257.217957 
	C285.055267,257.217957 268.478333,257.217957 251.445633,257.095520 
z"/>
<path fill="#FFFFFF" opacity="1.000000" stroke="none" 
	d="
M255.999390,131.998550 
	C256.239929,131.825043 256.469849,131.638489 256.839417,131.275467 
	C287.688660,131.071167 318.387604,131.030304 349.822571,131.211655 
	C351.372345,131.622986 352.186188,131.812103 352.919067,132.367813 
	C352.009766,135.848953 351.606323,138.859909 354.862488,141.414154 
	C354.968384,142.994980 355.060333,144.143906 355.152283,145.292847 
	C355.135529,146.608154 355.118774,147.923477 354.650391,149.753876 
	C353.463715,152.818771 352.281006,155.336243 352.093903,157.925674 
	C351.778137,162.297119 349.774109,165.187134 346.203705,167.232880 
	C346.162354,165.922195 347.089325,164.894577 347.011230,163.950012 
	C346.939636,163.083542 345.783997,162.306671 345.105988,161.490326 
	C342.435516,164.393051 337.633667,167.240631 337.556824,170.210464 
	C337.415039,175.689774 335.697754,177.353317 330.813995,177.347794 
	C328.506866,177.345184 326.062653,177.172562 323.931396,177.857544 
	C321.875977,178.518188 319.963776,179.990112 318.346588,181.491241 
	C317.562561,182.219040 317.597412,183.829025 317.118256,185.555878 
	C315.689819,184.405579 314.790802,183.463959 313.706024,182.850983 
	C311.012360,181.328842 307.094757,182.997986 306.607025,185.758057 
	C306.209259,188.009125 305.786713,190.255814 305.375183,192.504456 
	C305.375183,192.504456 305.318512,192.461517 304.950562,192.360718 
	C298.033661,193.437836 291.060272,191.483658 284.804504,194.950378 
	C284.310883,195.223938 283.311890,195.265915 282.927521,194.951431 
	C278.965485,191.709641 276.464417,194.072449 273.631836,196.872345 
	C271.800934,198.682098 269.368225,200.155121 266.934326,200.975769 
	C265.577606,201.433228 263.628082,200.352768 262.015900,199.770935 
	C260.387238,199.183151 258.845306,198.355133 257.265381,197.632355 
	C257.394836,199.381531 256.980042,201.440277 257.763428,202.817505 
	C259.573669,206.000015 258.241272,207.535080 255.469574,208.474335 
	C254.093781,208.940552 252.526108,208.840500 251.045242,208.996628 
	C251.044510,203.976852 251.043762,198.957077 251.469116,193.467163 
	C255.883575,193.384079 257.297943,191.354019 256.999542,187.631912 
	C256.460846,180.912994 254.752411,173.994461 255.805420,167.529510 
	C256.730347,161.850677 254.739166,158.981415 251.062714,156.007263 
	C251.055527,152.973282 251.048355,149.939301 251.339676,146.362427 
	C254.674118,144.057617 253.514481,142.931931 251.059402,142.002655 
	C251.055466,141.252274 251.051514,140.501892 251.394257,139.307770 
	C253.160416,136.575531 254.579895,134.287033 255.999390,131.998550 
M265.864563,195.725510 
	C266.669708,195.780167 267.474823,195.834824 268.279968,195.889465 
	C268.074066,195.201859 267.868164,194.514236 267.662292,193.826614 
	C266.978790,194.288040 266.295319,194.749481 265.864563,195.725510 
z"/>
<path fill="#FCFEFE" opacity="1.000000" stroke="none" 
	d="
M305.740845,192.441254 
	C305.786713,190.255814 306.209259,188.009125 306.607025,185.758057 
	C307.094757,182.997986 311.012360,181.328842 313.706024,182.850983 
	C314.790802,183.463959 315.689819,184.405579 317.118256,185.555878 
	C317.597412,183.829025 317.562561,182.219040 318.346588,181.491241 
	C319.963776,179.990112 321.875977,178.518188 323.931396,177.857544 
	C326.062653,177.172562 328.506866,177.345184 330.813995,177.347794 
	C335.697754,177.353317 337.415039,175.689774 337.556824,170.210464 
	C337.633667,167.240631 342.435516,164.393051 345.105988,161.490326 
	C345.783997,162.306671 346.939636,163.083542 347.011230,163.950012 
	C347.089325,164.894577 346.162354,165.922195 346.203705,167.232880 
	C349.774109,165.187134 351.778137,162.297119 352.093903,157.925674 
	C352.281006,155.336243 353.463715,152.818771 354.541931,150.134125 
	C354.281281,156.752670 353.846283,163.529068 352.931396,170.240036 
	C352.748047,171.585037 350.960388,173.191635 349.535461,173.812851 
	C335.104034,180.104279 320.594299,186.215973 305.740845,192.441254 
z"/>
<path fill="#FCFEFE" opacity="1.000000" stroke="none" 
	d="
M251.032623,209.391571 
	C252.526108,208.840500 254.093781,208.940552 255.469574,208.474335 
	C258.241272,207.535080 259.573669,206.000015 257.763428,202.817505 
	C256.980042,201.440277 257.394836,199.381531 257.265381,197.632355 
	C258.845306,198.355133 260.387238,199.183151 262.015900,199.770935 
	C263.628082,200.352768 265.577606,201.433228 266.934326,200.975769 
	C269.368225,200.155121 271.800934,198.682098 273.631836,196.872345 
	C276.464417,194.072449 278.965485,191.709641 282.927521,194.951431 
	C283.311890,195.265915 284.310883,195.223938 284.804504,194.950378 
	C291.060272,191.483658 298.033661,193.437836 304.975891,192.335724 
	C288.164612,199.895004 270.960083,207.378448 253.404968,214.914398 
	C252.376266,213.240112 251.698151,211.513306 251.032623,209.391571 
z"/>
<path fill="#E0F8FE" opacity="1.000000" stroke="none" 
	d="
M353.000000,132.001221 
	C352.186188,131.812103 351.372345,131.622986 350.289154,131.271484 
	C352.105408,131.109100 354.191071,131.109100 357.128784,131.109100 
	C356.624146,135.784088 356.145538,140.217529 355.409607,144.971924 
	C355.060333,144.143906 354.968384,142.994980 354.905151,141.003174 
	C353.771881,137.563263 358.334900,133.609222 353.000000,132.001221 
z"/>
<path fill="#FCFEFE" opacity="1.000000" stroke="none" 
	d="
M251.045319,156.472137 
	C254.739166,158.981415 256.730347,161.850677 255.805420,167.529510 
	C254.752411,173.994461 256.460846,180.912994 256.999542,187.631912 
	C257.297943,191.354019 255.883575,193.384079 251.482727,193.000778 
	C251.032562,187.315414 250.994919,181.626328 250.928009,175.475632 
	C250.898743,175.014038 250.977036,174.541214 251.347717,174.245850 
	C252.509308,173.744293 253.300201,173.538086 255.234055,173.033920 
	C253.009323,172.427734 251.991653,172.150436 250.973969,171.873138 
	C250.973969,171.873138 250.977676,171.442230 250.976013,171.226929 
	C250.992203,166.320099 251.010071,161.628540 251.045319,156.472137 
z"/>
<path fill="#FCFEFE" opacity="1.000000" stroke="none" 
	d="
M255.581497,131.992432 
	C254.579895,134.287033 253.160416,136.575531 251.403214,138.932648 
	C251.040619,136.964645 251.015747,134.928040 250.985352,132.456177 
	C252.374420,132.009384 253.769012,131.997833 255.581497,131.992432 
z"/>
<path fill="#FCFEFE" opacity="1.000000" stroke="none" 
	d="
M251.043701,142.401886 
	C253.514481,142.931931 254.674118,144.057617 251.352371,145.908005 
	C251.053726,144.931366 251.040863,143.866257 251.043701,142.401886 
z"/>
<path fill="#E5F8FF" opacity="1.000000" stroke="none" 
	d="
M148.123993,165.845398 
	C148.066376,165.952530 148.052002,165.503311 148.050201,165.279495 
	C148.205566,165.263794 148.249954,165.491333 148.123993,165.845398 
z"/>
<path fill="#92BDD9" opacity="1.000000" stroke="none" 
	d="
M250.923691,172.151932 
	C251.991653,172.150436 253.009323,172.427734 255.234055,173.033920 
	C253.300201,173.538086 252.509308,173.744293 251.400238,174.012054 
	C251.039917,173.894119 250.997742,173.714615 250.976761,173.259293 
	C250.956421,172.799210 250.914917,172.614975 250.923691,172.151932 
z"/>
<path fill="#FCFEFE" opacity="1.000000" stroke="none" 
	d="
M352.919067,132.367813 
	C358.334900,133.609222 353.771881,137.563263 354.891205,140.571304 
	C351.606323,138.859909 352.009766,135.848953 352.919067,132.367813 
z"/>
<path fill="#FCFEFE" opacity="1.000000" stroke="none" 
	d="
M265.738190,195.468216 
	C266.295319,194.749481 266.978790,194.288040 267.662292,193.826614 
	C267.868164,194.514236 268.074066,195.201859 268.279968,195.889465 
	C267.474823,195.834824 266.669708,195.780167 265.738190,195.468216 
z"/>
</svg>