<svg version="1.1" id="Layer_1" xmlns="http://www.w3.org/2000/svg" xmlns:xlink="http://www.w3.org/1999/xlink" x="0px" y="0px"
	 width="100%" viewBox="0 0 225 225" enable-background="new 0 0 225 225" xml:space="preserve">
<path fill="#E15028" opacity="1.000000" stroke="none" 
	d="
M118.000000,226.000000 
	C114.969406,226.000000 111.938812,226.000000 108.754196,225.669037 
	C108.263733,224.973267 107.989082,224.389999 107.582016,224.274857 
	C83.520096,217.468811 59.442135,210.719345 35.390488,203.877380 
	C34.183327,203.533997 32.428509,202.575226 32.241039,201.639938 
	C31.534773,198.116302 31.305172,194.489120 31.018478,190.891022 
	C30.312820,182.034790 29.799698,173.161575 28.979454,164.316498 
	C27.767820,151.250870 26.257889,138.212753 25.064875,125.145599 
	C24.227264,115.971199 23.806362,106.759308 23.020203,97.579514 
	C21.787580,83.186440 20.384102,68.808075 19.095264,54.419689 
	C18.684252,49.831200 18.503651,45.221184 18.051107,40.637455 
	C16.746223,27.420481 15.356440,14.211886 14.000000,1.000000 
	C79.687561,1.000000 145.375122,1.000000 211.493057,1.458815 
	C211.248276,10.113798 210.523560,18.306265 209.910934,26.507105 
	C209.199493,36.030621 208.767563,45.578285 207.885864,55.085007 
	C206.719803,67.657928 205.072052,80.186523 203.932404,92.761459 
	C202.759491,105.703369 201.952393,118.678368 200.976959,131.638275 
	C200.618500,136.401230 200.329834,141.171951 199.845108,145.922379 
	C198.930084,154.890076 197.764618,163.833694 196.948380,172.809601 
	C196.128479,181.825760 195.779022,190.888107 194.783035,199.881454 
	C194.620193,201.351776 192.399460,203.320358 190.764328,203.792313 
	C167.023697,210.644821 143.217407,217.269806 119.450500,224.032394 
	C118.830574,224.208801 118.477516,225.323090 118.000000,226.000000 
M112.048126,41.000454 
	C93.941147,40.987759 75.834007,40.937107 57.727409,41.014660 
	C55.668716,41.023479 53.613110,41.752304 51.303364,42.934853 
	C52.418110,56.522724 53.679272,70.100677 54.600811,83.701637 
	C55.324852,94.387772 55.629398,105.102325 56.327488,116.288307 
	C56.605034,116.495232 56.882580,116.702148 57.718094,117.057007 
	C57.853584,117.193626 57.989079,117.330254 58.844452,117.782333 
	C61.714939,117.790337 64.585426,117.798347 68.312157,117.583664 
	C83.300919,117.674751 98.289673,117.765831 113.345795,118.447227 
	C113.483002,123.071274 113.892502,127.706841 113.697533,132.316833 
	C113.351883,140.489288 112.639130,148.646225 111.330063,156.811569 
	C104.298035,154.833359 97.328758,152.573807 90.209618,150.986252 
	C86.169693,150.085342 84.772415,148.229813 84.838371,144.226868 
	C84.901039,140.423141 84.390694,136.581284 83.781502,132.812881 
	C83.601891,131.701859 82.257278,129.937424 81.400459,129.909958 
	C74.138077,129.677109 66.865021,129.776947 58.950325,129.776947 
	C59.995399,142.578583 60.913715,154.802521 62.128292,166.996979 
	C62.234272,168.061066 64.142426,169.394730 65.462952,169.810135 
	C70.849686,171.504608 76.319008,172.945663 81.784500,174.378693 
	C92.856773,177.281769 103.946327,180.118912 114.582481,183.520569 
	C114.582481,191.454758 114.582481,199.388962 114.582481,207.491989 
	C115.172104,207.453979 115.849174,207.520721 116.463341,207.354706 
	C136.212250,202.016525 155.973251,196.720215 175.660995,191.164474 
	C177.086914,190.762100 178.787933,188.548035 178.978058,187.005798 
	C180.196869,177.118896 181.089600,167.189728 181.973465,157.264114 
	C183.137497,144.191986 184.131439,131.104614 185.313782,118.034233 
	C186.810394,101.489540 188.480682,84.960518 189.968201,68.415039 
	C191.306793,53.526157 192.425888,38.617390 193.794571,23.731436 
	C194.316742,18.052147 193.622894,17.030642 187.725372,17.014704 
	C175.069290,16.980501 162.413040,17.000694 149.756866,17.003113 
	C139.265594,17.005119 128.774261,16.996855 118.283089,17.031750 
	C115.872513,17.039768 113.294281,17.176371 113.355431,20.518415 
	C113.479637,27.306477 113.777626,34.091358 113.493530,40.951023 
	C113.322922,40.971478 113.152306,40.991932 112.048126,41.000454 
z"/>
<path fill="#000000" opacity="1.000000" stroke="none" 
	d="
M118.468658,226.000000 
	C118.477516,225.323090 118.830574,224.208801 119.450500,224.032394 
	C143.217407,217.269806 167.023697,210.644821 190.764328,203.792313 
	C192.399460,203.320358 194.620193,201.351776 194.783035,199.881454 
	C195.779022,190.888107 196.128479,181.825760 196.948380,172.809601 
	C197.764618,163.833694 198.930084,154.890076 199.845108,145.922379 
	C200.329834,141.171951 200.618500,136.401230 200.976959,131.638275 
	C201.952393,118.678368 202.759491,105.703369 203.932404,92.761459 
	C205.072052,80.186523 206.719803,67.657928 207.885864,55.085007 
	C208.767563,45.578285 209.199493,36.030621 209.910934,26.507105 
	C210.523560,18.306265 211.248276,10.113798 211.961716,1.458815 
	C216.660782,1.000000 221.321548,1.000000 225.986755,0.999999 
	C225.991165,75.899437 225.991165,150.798874 225.991165,226.000000 
	C190.313004,226.000000 154.625168,226.000000 118.468658,226.000000 
z"/>
<path fill="#000000" opacity="1.000000" stroke="none" 
	d="
M13.523338,1.000000 
	C15.356440,14.211886 16.746223,27.420481 18.051107,40.637455 
	C18.503651,45.221184 18.684252,49.831200 19.095264,54.419689 
	C20.384102,68.808075 21.787580,83.186440 23.020203,97.579514 
	C23.806362,106.759308 24.227264,115.971199 25.064875,125.145599 
	C26.257889,138.212753 27.767820,151.250870 28.979454,164.316498 
	C29.799698,173.161575 30.312820,182.034790 31.018478,190.891022 
	C31.305172,194.489120 31.534773,198.116302 32.241039,201.639938 
	C32.428509,202.575226 34.183327,203.533997 35.390488,203.877380 
	C59.442135,210.719345 83.520096,217.468811 107.582016,224.274857 
	C107.989082,224.389999 108.263733,224.973267 108.300087,225.669037 
	C72.380257,226.000000 36.760517,226.000000 1.070387,226.000000 
	C1.070387,151.000046 1.070387,76.000031 1.066466,1.000011 
	C5.057256,1.000000 9.051966,1.000000 13.523338,1.000000 
z"/>
<path fill="#EF652B" opacity="1.000000" stroke="none" 
	d="
M114.003983,40.877552 
	C113.777626,34.091358 113.479637,27.306477 113.355431,20.518415 
	C113.294281,17.176371 115.872513,17.039768 118.283089,17.031750 
	C128.774261,16.996855 139.265594,17.005119 149.756866,17.003113 
	C162.413040,17.000694 175.069290,16.980501 187.725372,17.014704 
	C193.622894,17.030642 194.316742,18.052147 193.794571,23.731436 
	C192.425888,38.617390 191.306793,53.526157 189.968201,68.415039 
	C188.480682,84.960518 186.810394,101.489540 185.313782,118.034233 
	C184.131439,131.104614 183.137497,144.191986 181.973465,157.264114 
	C181.089600,167.189728 180.196869,177.118896 178.978058,187.005798 
	C178.787933,188.548035 177.086914,190.762100 175.660995,191.164474 
	C155.973251,196.720215 136.212250,202.016525 116.463341,207.354706 
	C115.849174,207.520721 115.172104,207.453979 114.582481,207.491989 
	C114.582481,199.388962 114.582481,191.454758 114.885666,183.046234 
	C115.188843,182.571899 115.324867,182.151535 115.708717,182.127518 
	C120.251442,181.247269 124.485695,180.653244 128.554459,179.483597 
	C139.022125,176.474457 149.367905,173.033264 159.868454,170.151169 
	C163.208145,169.234512 164.386276,167.616852 164.629242,164.397018 
	C166.047867,145.596680 167.585449,126.805321 169.256470,107.695702 
	C169.525421,105.928375 169.620789,104.476273 169.809906,102.622986 
	C170.052277,100.334778 170.200882,98.447739 170.539703,96.228920 
	C170.684448,94.639008 170.639008,93.380875 170.303101,91.890350 
	C168.064285,91.437614 166.116959,91.036224 164.167465,91.025322 
	C147.128204,90.930084 130.088547,90.904648 113.047195,90.430359 
	C113.052238,82.399872 113.059082,74.797539 113.308441,67.109451 
	C113.707275,66.953262 113.863602,66.882805 114.483505,66.872223 
	C133.958801,66.877846 152.970535,66.823578 172.347351,66.723358 
	C173.077377,64.111343 173.442291,61.545296 173.898071,58.607109 
	C174.178970,56.473846 174.369019,54.712734 174.659088,52.729218 
	C174.759125,52.506813 174.651917,52.031017 174.746063,51.586540 
	C174.827972,48.142136 174.815720,45.142204 174.476471,41.906952 
	C172.028854,41.437046 169.909134,41.008316 167.787460,40.998421 
	C149.859833,40.914795 131.931854,40.907665 114.003983,40.877552 
z"/>
<path fill="#EEE8E5" opacity="1.000000" stroke="none" 
	d="
M114.019936,66.812340 
	C113.863602,66.882805 113.707275,66.953262 112.838692,67.021057 
	C101.073105,67.018410 90.019768,67.018410 78.199097,67.018410 
	C79.184120,75.553879 80.071297,83.241478 81.107285,91.358948 
	C91.817848,91.862869 102.379585,91.936920 113.408318,92.087708 
	C132.781387,92.150543 151.687485,92.136642 170.593567,92.122742 
	C170.639008,93.380875 170.684448,94.639008 170.394318,95.828659 
	C168.631500,94.897469 167.212524,93.300705 165.775726,93.284477 
	C149.665405,93.102501 133.552246,93.193909 117.440132,93.134155 
	C114.268921,93.122398 112.932625,94.485168 112.974945,97.629219 
	C113.062134,104.106232 113.012344,110.585075 113.086555,117.260704 
	C113.154198,117.458237 113.278435,117.856918 113.278435,117.856918 
	C98.289673,117.765831 83.300919,117.674751 67.480415,117.547478 
	C63.807308,117.496483 60.965942,117.481682 58.124577,117.466873 
	C57.989079,117.330254 57.853584,117.193626 57.280693,116.785400 
	C56.602295,116.277275 56.361294,116.040771 56.120296,115.804260 
	C55.629398,105.102325 55.324852,94.387772 54.600811,83.701637 
	C53.679272,70.100677 52.418110,56.522724 51.838058,42.595398 
	C72.560730,42.166470 92.748711,42.076996 113.404480,42.060204 
	C133.494156,42.245003 153.116028,42.357124 172.392395,42.637966 
	C169.891022,42.917442 167.735306,43.120525 165.579269,43.124184 
	C149.919937,43.150749 134.259247,43.042892 118.602951,43.261971 
	C116.758888,43.287773 113.382637,45.001270 113.358200,45.997231 
	C113.188179,52.926018 113.715912,59.871922 114.019936,66.812340 
z"/>
<path fill="#EDE9E7" opacity="1.000000" stroke="none" 
	d="
M115.324867,182.151535 
	C115.324867,182.151535 115.188843,182.571899 115.108803,182.777573 
	C103.946327,180.118912 92.856773,177.281769 81.784500,174.378693 
	C76.319008,172.945663 70.849686,171.504608 65.462952,169.810135 
	C64.142426,169.394730 62.234272,168.061066 62.128292,166.996979 
	C60.913715,154.802521 59.995399,142.578583 58.950325,129.776947 
	C66.865021,129.776947 74.138077,129.677109 81.400459,129.909958 
	C82.257278,129.937424 83.601891,131.701859 83.781502,132.812881 
	C84.390694,136.581284 84.901039,140.423141 84.838371,144.226868 
	C84.772415,148.229813 86.169693,150.085342 90.209618,150.986252 
	C97.328758,152.573807 104.298035,154.833359 111.954903,156.899780 
	C112.745888,157.051163 112.912025,157.114334 113.057037,157.634674 
	C113.021774,164.255722 112.827965,170.427551 113.101120,176.578659 
	C113.184914,178.465485 114.547745,180.295502 115.324867,182.151535 
z"/>
<path fill="#EE6B34" opacity="1.000000" stroke="none" 
	d="
M113.078163,157.177490 
	C112.912025,157.114334 112.745888,157.051163 112.329865,156.898819 
	C112.639130,148.646225 113.351883,140.489288 113.697533,132.316833 
	C113.892502,127.706841 113.483002,123.071274 113.312119,118.152069 
	C113.278435,117.856918 113.154198,117.458237 113.540878,117.381531 
	C123.697296,117.304832 133.467041,117.304832 143.792938,117.304832 
	C142.794083,128.038864 141.906921,137.938309 140.887604,147.824142 
	C140.807159,148.604309 139.938522,149.743134 139.216705,149.950226 
	C130.527863,152.442993 121.797607,154.791412 113.078163,157.177490 
z"/>
<path fill="#CA6534" opacity="1.000000" stroke="none" 
	d="
M172.737900,42.469242 
	C153.116028,42.357124 133.494156,42.245003 113.420982,41.816593 
	C112.969688,41.500305 112.981682,41.012390 112.981682,41.012390 
	C113.152306,40.991932 113.322922,40.971478 113.748756,40.914288 
	C131.931854,40.907665 149.859833,40.914795 167.787460,40.998421 
	C169.909134,41.008316 172.028854,41.437046 174.134613,41.962742 
	C173.659119,42.325649 173.198517,42.397446 172.737900,42.469242 
z"/>
<path fill="#C04F2C" opacity="1.000000" stroke="none" 
	d="
M112.514908,41.006424 
	C112.981682,41.012390 112.969688,41.500305 112.953186,41.743916 
	C92.748711,42.076996 72.560730,42.166470 51.964417,42.201607 
	C53.613110,41.752304 55.668716,41.023479 57.727409,41.014660 
	C75.834007,40.937107 93.941147,40.987759 112.514908,41.006424 
z"/>
<path fill="#EE6B34" opacity="1.000000" stroke="none" 
	d="
M58.484512,117.624603 
	C60.965942,117.481682 63.807308,117.496483 67.052292,117.658829 
	C64.585426,117.798347 61.714939,117.790337 58.484512,117.624603 
z"/>
<path fill="#EE6B34" opacity="1.000000" stroke="none" 
	d="
M56.223892,116.046280 
	C56.361294,116.040771 56.602295,116.277275 57.001709,116.711426 
	C56.882580,116.702148 56.605034,116.495232 56.223892,116.046280 
z"/>
<path fill="#FFFDFB" opacity="1.000000" stroke="none" 
	d="
M113.057037,157.634674 
	C121.797607,154.791412 130.527863,152.442993 139.216705,149.950226 
	C139.938522,149.743134 140.807159,148.604309 140.887604,147.824142 
	C141.906921,137.938309 142.794083,128.038864 143.792938,117.304832 
	C133.467041,117.304832 123.697296,117.304832 113.473236,117.184006 
	C113.012344,110.585075 113.062134,104.106232 112.974945,97.629219 
	C112.932625,94.485168 114.268921,93.122398 117.440132,93.134155 
	C133.552246,93.193909 149.665405,93.102501 165.775726,93.284477 
	C167.212524,93.300705 168.631500,94.897469 170.204117,96.160446 
	C170.200882,98.447739 170.052277,100.334778 169.635284,102.945404 
	C169.272217,105.116310 169.177521,106.563622 169.082855,108.010925 
	C167.585449,126.805321 166.047867,145.596680 164.629242,164.397018 
	C164.386276,167.616852 163.208145,169.234512 159.868454,170.151169 
	C149.367905,173.033264 139.022125,176.474457 128.554459,179.483597 
	C124.485695,180.653244 120.251442,181.247269 115.708717,182.127518 
	C114.547745,180.295502 113.184914,178.465485 113.101120,176.578659 
	C112.827965,170.427551 113.021774,164.255722 113.057037,157.634674 
z"/>
<path fill="#FFFEFD" opacity="1.000000" stroke="none" 
	d="
M172.392395,42.637966 
	C173.198517,42.397446 173.659119,42.325649 174.461609,42.198067 
	C174.815720,45.142204 174.827972,48.142136 174.649918,51.679970 
	C174.326782,52.486301 174.359940,52.730885 174.559067,52.951618 
	C174.369019,54.712734 174.178970,56.473846 173.726715,58.929974 
	C172.970444,62.006424 172.476349,64.387863 171.982269,66.769318 
	C152.970535,66.823578 133.958801,66.877846 114.483505,66.872223 
	C113.715912,59.871922 113.188179,52.926018 113.358200,45.997231 
	C113.382637,45.001270 116.758888,43.287773 118.602951,43.261971 
	C134.259247,43.042892 149.919937,43.150749 165.579269,43.124184 
	C167.735306,43.120525 169.891022,42.917442 172.392395,42.637966 
z"/>
<path fill="#E15028" opacity="1.000000" stroke="none" 
	d="
M80.958466,90.929070 
	C80.071297,83.241478 79.184120,75.553879 78.199097,67.018410 
	C90.019768,67.018410 101.073105,67.018410 112.596191,67.106804 
	C113.059082,74.797539 113.052238,82.399872 113.029396,90.469116 
	C113.013405,90.936020 112.978157,91.009941 112.511810,91.002731 
	C101.683136,90.973373 91.320801,90.951218 80.958466,90.929070 
z"/>
<path fill="#CD6233" opacity="1.000000" stroke="none" 
	d="
M170.303101,91.890343 
	C151.687485,92.136642 132.781387,92.150543 113.422073,91.837547 
	C112.971939,91.343750 112.975044,91.176849 112.978157,91.009941 
	C112.978157,91.009941 113.013405,90.936020 113.031204,90.897263 
	C130.088547,90.904648 147.128204,90.930084 164.167465,91.025322 
	C166.116959,91.036224 168.064285,91.437614 170.303101,91.890343 
z"/>
<path fill="#EEE8E5" opacity="1.000000" stroke="none" 
	d="
M172.347351,66.723351 
	C172.476349,64.387863 172.970444,62.006424 173.635864,59.302116 
	C173.442291,61.545296 173.077377,64.111343 172.347351,66.723351 
z"/>
<path fill="#EEE8E5" opacity="1.000000" stroke="none" 
	d="
M169.256454,107.695702 
	C169.177521,106.563622 169.272217,105.116310 169.541534,103.346588 
	C169.620789,104.476273 169.525421,105.928375 169.256454,107.695702 
z"/>
<path fill="#EEE8E5" opacity="1.000000" stroke="none" 
	d="
M174.659088,52.729218 
	C174.359940,52.730885 174.326782,52.486301 174.555756,52.124443 
	C174.651917,52.031017 174.759125,52.506813 174.659088,52.729218 
z"/>
<path fill="#C24D2D" opacity="1.000000" stroke="none" 
	d="
M112.511810,91.002731 
	C112.975044,91.176849 112.971939,91.343750 112.955086,91.760818 
	C102.379585,91.936920 91.817848,91.862869 81.107285,91.358948 
	C91.320801,90.951218 101.683136,90.973373 112.511810,91.002731 
z"/>
</svg>