<svg version="1.1" id="Layer_1" xmlns="http://www.w3.org/2000/svg" xmlns:xlink="http://www.w3.org/1999/xlink" x="0px" y="0px"
	 width="100%" viewBox="0 0 666 375" enable-background="new 0 0 666 375" xml:space="preserve">
<path fill="#000000" opacity="1.000000" stroke="none" 
	d="
M439.000000,376.000000 
	C292.701660,376.000000 146.903320,376.000000 1.052493,376.000000 
	C1.052493,251.065018 1.052493,126.129990 1.052493,1.097487 
	C222.881699,1.097487 444.763458,1.097487 666.822632,1.097487 
	C666.822632,125.999794 666.822632,250.999878 666.822632,376.000000 
	C591.129944,376.000000 515.314941,376.000000 439.000000,376.000000 
M179.978210,45.905945 
	C180.651276,53.661484 181.324341,61.417023 182.021103,69.557419 
	C182.021103,69.557419 182.157898,69.917915 182.011276,70.844368 
	C182.311325,74.738129 182.611374,78.631882 182.837784,82.784950 
	C182.837784,82.784950 183.055420,82.944008 183.010284,83.865967 
	C183.288010,87.343163 183.565750,90.820358 183.855484,94.683090 
	C183.855484,94.683090 184.098724,94.982437 184.009781,95.911079 
	C184.670654,103.315010 185.331528,110.718948 186.056305,118.560738 
	C186.056305,118.560738 186.188049,118.983162 186.015259,119.894600 
	C186.674774,127.644516 187.334290,135.394424 188.011597,143.740692 
	C188.066925,144.132477 188.122253,144.524246 188.027145,145.845840 
	C188.683624,152.610474 189.340103,159.375107 190.035400,166.551407 
	C190.035400,166.551407 190.176407,166.940125 190.022537,167.866989 
	C190.677719,176.177719 191.332901,184.488464 192.004593,193.749435 
	C193.152023,209.500137 194.299438,225.250839 195.778091,241.887451 
	C196.447037,249.362442 197.115982,256.837433 197.814346,264.706970 
	C197.814346,264.706970 198.083176,264.997284 198.013382,265.921783 
	C198.599442,274.054962 199.185501,282.188110 199.800415,290.717346 
	C199.800415,290.717346 200.072495,291.006622 200.014984,291.928162 
	C200.626709,299.717957 201.238434,307.507782 201.848633,315.669922 
	C201.848633,315.669922 202.089310,315.954041 202.005188,316.866821 
	C202.337036,320.953339 202.392197,325.094269 203.177689,329.091644 
	C203.399139,330.218475 205.760666,330.924805 207.455917,331.963898 
	C207.455917,331.963898 207.800674,331.975739 208.136810,332.640289 
	C209.095352,332.701324 210.053909,332.762360 211.421509,332.955841 
	C211.421509,332.955841 211.850128,332.989838 212.140549,333.617523 
	C212.800797,333.687317 213.461044,333.757141 214.462296,333.966156 
	C214.462296,333.966156 214.830170,333.984283 215.179535,334.630188 
	C216.128860,334.732727 217.078201,334.835266 218.555862,335.483063 
	C237.258163,340.741425 255.944168,346.058716 274.669983,351.231995 
	C283.366852,353.634644 292.141113,355.757324 301.153046,358.607025 
	C301.778137,358.676849 302.403229,358.746643 303.424133,358.959320 
	C303.424133,358.959320 303.843597,358.992279 304.141174,359.605377 
	C304.786804,359.674530 305.432434,359.743652 306.451660,359.945465 
	C306.451660,359.945465 306.845886,359.987640 307.183472,360.644958 
	C308.141266,360.706268 309.099060,360.767609 310.434631,360.966583 
	C310.434631,360.966583 310.836151,360.988037 311.231598,361.679871 
	C314.511749,362.430969 317.791870,363.182068 321.277679,364.188995 
	C321.277679,364.188995 321.605560,364.173798 322.067993,364.768097 
	C323.064850,364.785004 324.061737,364.801880 325.431000,364.962982 
	C325.431000,364.962982 325.829651,364.986389 326.139252,365.608307 
	C326.801117,365.680542 327.462952,365.752777 328.462006,365.961975 
	C328.462006,365.961975 328.825256,365.984253 329.197845,366.657745 
	C330.451172,366.809509 331.704498,366.961273 333.340149,367.769684 
	C336.904663,366.861267 340.490692,366.029205 344.030121,365.031769 
	C363.828949,359.452576 383.624084,353.859985 403.403107,348.211182 
	C409.132355,346.574921 414.781647,344.659119 420.507660,343.010773 
	C431.010437,339.987366 441.542999,337.067505 452.855927,334.021210 
	C454.872406,333.429352 456.871826,332.419159 458.909088,332.335938 
	C462.719879,332.180176 463.630798,329.572693 463.918945,326.772552 
	C464.491638,321.207947 464.602203,315.597504 465.015533,310.014313 
	C465.672424,301.142181 466.448059,292.278931 467.124054,283.408142 
	C468.049286,271.267029 468.928223,259.122375 470.217712,246.230240 
	C470.483521,243.490250 470.748810,240.750198 471.015167,238.010254 
	C472.331909,224.466599 473.744354,210.931335 474.933563,197.376480 
	C475.781006,187.717926 476.166931,178.018356 477.045166,168.363144 
	C478.574158,151.553314 480.461060,134.775635 481.937988,117.961639 
	C483.107147,104.651733 483.886963,91.307625 484.973785,77.139191 
	C485.258148,72.415428 485.542480,67.691673 485.960968,62.567459 
	C485.960968,62.567459 485.998138,62.146782 486.745544,61.683117 
	C487.101990,54.775337 487.458435,47.867558 487.953125,40.566486 
	C487.953125,40.566486 487.995697,40.151775 488.737061,39.685074 
	C488.770538,36.122608 488.804016,32.560143 488.975616,28.600357 
	C488.975616,28.600357 488.990234,28.179953 489.730438,27.700916 
	C489.763824,24.092876 489.797211,20.484835 489.971161,16.539200 
	C489.971161,16.539200 489.997650,16.174475 490.730316,15.719872 
	C490.822723,13.951763 490.915100,12.183653 491.006958,10.425863 
	C484.448669,9.940022 478.231689,9.366510 472.001526,9.082665 
	C469.975586,8.990364 467.915192,9.654972 465.283783,9.947769 
	C465.088013,9.946461 464.892273,9.945152 464.163483,9.356677 
	C462.684509,9.238602 461.205536,9.017447 459.726532,9.017175 
	C366.984314,9.000141 274.242065,8.999989 181.499847,9.010896 
	C180.062317,9.011065 178.624817,9.167857 176.542526,9.289100 
	C177.068848,13.187600 177.538132,16.663527 178.062363,20.553940 
	C178.062363,20.553940 178.197418,20.949642 178.023987,21.871914 
	C178.666199,29.606047 179.308426,37.340179 179.982666,45.010754 
	C179.982666,45.010754 179.918716,44.979530 179.978210,45.905945 
z"/>
<path fill="#E9CA33" opacity="1.000000" stroke="none" 
	d="
M485.998138,62.146782 
	C485.998138,62.146782 485.960968,62.567459 485.699158,63.115990 
	C485.238159,68.435921 485.038910,73.207314 484.839661,77.978706 
	C483.886963,91.307625 483.107147,104.651733 481.937988,117.961639 
	C480.461060,134.775635 478.574158,151.553314 477.045166,168.363144 
	C476.166931,178.018356 475.781006,187.717926 474.933563,197.376480 
	C473.744354,210.931335 472.331909,224.466599 471.015167,238.010254 
	C470.748810,240.750198 470.483521,243.490250 469.813416,246.922302 
	C468.952057,250.043488 468.291534,252.454315 468.071167,254.904724 
	C466.748779,269.610077 465.545563,284.326080 464.265259,299.035309 
	C463.563232,307.100739 462.440155,315.148712 462.181610,323.226135 
	C462.034912,327.808777 461.407867,330.965088 456.127258,331.595520 
	C454.693146,331.766724 453.413605,333.232758 452.063141,334.104492 
	C441.542999,337.067505 431.010437,339.987366 420.507660,343.010773 
	C414.781647,344.659119 409.132355,346.574921 403.403107,348.211182 
	C383.624084,353.859985 363.828949,359.452576 344.030121,365.031769 
	C340.490692,366.029205 336.904663,366.861267 332.874817,367.202728 
	C331.214752,366.418610 330.019989,366.201416 328.825256,365.984253 
	C328.825256,365.984253 328.462006,365.961975 328.041443,365.706299 
	C327.023773,365.295898 326.426727,365.141144 325.829651,364.986389 
	C325.829651,364.986389 325.431000,364.962982 324.932922,364.703827 
	C323.491760,364.354401 322.548645,364.264099 321.605560,364.173798 
	C321.605560,364.173798 321.277679,364.188995 321.021881,363.730530 
	C317.456116,362.510742 314.146118,361.749390 310.836151,360.988037 
	C310.836151,360.988037 310.434631,360.966583 309.962280,360.710022 
	C308.608551,360.298157 307.727234,360.142914 306.845886,359.987640 
	C306.845886,359.987640 306.451660,359.945465 306.020142,359.696472 
	C305.006958,359.295776 304.425293,359.144012 303.843597,358.992279 
	C303.843597,358.992279 303.424133,358.959320 302.989807,358.714661 
	C301.997070,358.315643 301.438690,358.161285 300.880280,358.006927 
	C292.141113,355.757324 283.366852,353.634644 274.669983,351.231995 
	C255.944168,346.058716 237.258163,340.741425 218.020401,335.003601 
	C216.600021,334.344208 215.715088,334.164246 214.830170,333.984283 
	C214.830170,333.984283 214.462296,333.966156 214.042175,333.710632 
	C213.031418,333.300049 212.440781,333.144928 211.850128,332.989838 
	C211.850128,332.989838 211.421509,332.955841 210.933182,332.705963 
	C209.563461,332.295990 208.682068,332.135864 207.800674,331.975739 
	C207.800674,331.975739 207.455917,331.963898 207.052795,331.615723 
	C205.757217,329.131378 204.658310,327.054504 204.023361,324.844330 
	C203.187759,321.935760 202.716965,318.922363 202.089310,315.954041 
	C202.089310,315.954041 201.848633,315.669922 201.903015,315.001617 
	C201.329086,306.557739 200.700790,298.782196 200.072495,291.006622 
	C200.072495,291.006622 199.800415,290.717346 199.852936,290.040649 
	C199.298035,281.241730 198.690598,273.119507 198.083176,264.997284 
	C198.083176,264.997284 197.814346,264.706970 197.869995,264.032501 
	C197.941315,260.362000 198.269791,257.326691 197.899780,254.379074 
	C197.336029,249.888031 196.288788,245.457672 195.446869,241.001541 
	C194.299438,225.250839 193.152023,209.500137 192.008286,192.826416 
	C192.004364,188.454102 192.215866,184.986923 191.936722,181.559738 
	C191.538513,176.671173 190.780655,171.811905 190.176407,166.940125 
	C190.176407,166.940125 190.035400,166.551407 190.025223,165.866241 
	C189.996384,160.021927 190.115555,154.856430 189.878067,149.707382 
	C189.803375,148.087570 188.771408,146.511902 188.177582,144.916031 
	C188.122253,144.524246 188.066925,144.132477 188.015762,142.962952 
	C188.004913,137.756485 188.210159,133.312439 187.902924,128.904099 
	C187.670807,125.573456 186.783661,122.288467 186.188049,118.983162 
	C186.188049,118.983162 186.056305,118.560738 186.033417,117.870567 
	C185.373260,109.781075 184.735992,102.381760 184.098724,94.982437 
	C184.098724,94.982437 183.855484,94.683090 183.902206,94.024574 
	C183.651093,89.892044 183.353256,86.418022 183.055420,82.944008 
	C183.055420,82.944008 182.837784,82.784950 182.912704,82.195175 
	C182.711044,77.709579 182.434479,73.813744 182.157898,69.917915 
	C182.157898,69.917915 182.021103,69.557419 182.016113,68.883102 
	C181.313675,60.465706 180.616196,52.722618 179.918716,44.979530 
	C179.918716,44.979530 179.982666,45.010754 179.996521,44.570030 
	C179.998993,39.705078 180.207886,35.265659 179.904251,30.861578 
	C179.674850,27.534189 178.790359,24.251966 178.197418,20.949642 
	C178.197418,20.949642 178.062363,20.553940 178.047318,19.880943 
	C178.024933,18.209297 178.128372,17.195175 177.991409,16.214628 
	C177.332947,11.500267 179.126968,9.497037 184.056305,9.921340 
	C188.187119,10.276908 192.372910,9.994603 196.534348,9.993831 
	C285.921722,9.977245 375.309113,9.960532 464.696503,9.943844 
	C464.892273,9.945152 465.088013,9.946461 465.937561,10.180925 
	C472.804321,10.832261 479.049561,11.820788 485.219238,11.472261 
	C489.479401,11.231603 490.066040,12.918848 489.997650,16.174475 
	C489.997650,16.174475 489.971161,16.539200 489.583557,16.887348 
	C489.127380,20.883648 489.058807,24.531801 488.990234,28.179953 
	C488.990234,28.179953 488.975616,28.600357 488.716400,29.157465 
	C488.303375,33.193642 488.149536,36.672707 487.995728,40.151775 
	C487.995697,40.151775 487.953125,40.566486 487.674469,41.082378 
	C486.929932,48.447773 486.464020,55.297279 485.998138,62.146782 
M447.278656,236.920395 
	C448.187683,227.508972 449.194855,218.105759 449.982452,208.684189 
	C451.129883,194.957550 452.025848,181.209717 453.199371,167.485489 
	C454.711731,149.799316 456.412933,132.129349 457.992126,114.448784 
	C458.818878,105.192459 459.523163,95.925209 460.346191,86.668533 
	C461.536194,73.284279 462.953064,59.917522 463.933167,46.518433 
	C464.400543,40.128933 463.980347,40.004951 457.731995,40.003334 
	C418.922119,39.993282 380.111725,40.089745 341.302917,39.888016 
	C336.114044,39.861050 334.891785,41.582554 334.898346,46.499031 
	C335.024811,141.274902 334.991730,236.051010 335.006226,330.827057 
	C335.006470,332.594025 335.185242,334.360962 335.302185,336.524872 
	C337.132965,336.151154 338.421631,335.979919 339.656433,335.622620 
	C370.181274,326.790558 400.634094,317.697906 431.267883,309.262115 
	C438.809906,307.185211 442.213562,304.675049 442.468750,295.873260 
	C443.030457,276.499298 445.458191,257.179443 447.278656,236.920395 
M321.010834,132.500000 
	C321.010834,113.436157 321.010834,94.372322 321.010834,74.995972 
	C310.900116,74.995972 301.737579,75.267761 292.602448,74.885216 
	C287.789490,74.683662 286.890533,76.439568 286.901062,80.868164 
	C287.048370,142.839447 287.014679,204.811172 287.025024,266.782776 
	C287.025330,268.691376 287.025055,270.599945 287.025055,272.711487 
	C279.052429,271.305969 271.915100,269.960938 264.745209,268.820282 
	C261.168915,268.251343 259.749207,266.592133 259.936768,262.836182 
	C260.235474,256.854156 260.199249,250.834976 259.862732,244.856369 
	C259.781677,243.416748 258.161224,241.090988 256.918060,240.845230 
	C247.890488,239.060593 238.778214,237.704254 229.583450,236.194519 
	C229.335602,237.380554 229.086441,238.019501 229.085297,238.658905 
	C229.053238,256.649811 229.118057,274.641327 228.970688,292.631165 
	C228.943253,295.980164 231.087540,296.311798 233.332748,296.899231 
	C256.430573,302.942505 279.527405,308.989746 302.631714,315.008118 
	C308.514160,316.540436 314.422241,317.974365 321.010834,319.627167 
	C321.010834,257.031799 321.010834,195.265900 321.010834,132.500000 
z"/>
<path fill="#DACC52" opacity="1.000000" stroke="none" 
	d="
M464.429993,9.650261 
	C375.309113,9.960532 285.921722,9.977245 196.534348,9.993831 
	C192.372910,9.994603 188.187119,10.276908 184.056305,9.921340 
	C179.126968,9.497037 177.332947,11.500267 177.991409,16.214628 
	C178.128372,17.195175 178.024933,18.209297 178.019836,19.673702 
	C177.538132,16.663527 177.068848,13.187600 176.542526,9.289100 
	C178.624817,9.167857 180.062317,9.011065 181.499847,9.010896 
	C274.242065,8.999989 366.984314,9.000141 459.726532,9.017175 
	C461.205536,9.017447 462.684509,9.238602 464.429993,9.650261 
z"/>
<path fill="#D7CC55" opacity="1.000000" stroke="none" 
	d="
M452.459534,334.062866 
	C453.413605,333.232758 454.693146,331.766724 456.127258,331.595520 
	C461.407867,330.965088 462.034912,327.808777 462.181610,323.226135 
	C462.440155,315.148712 463.563232,307.100739 464.265259,299.035309 
	C465.545563,284.326080 466.748779,269.610077 468.071167,254.904724 
	C468.291534,252.454315 468.952057,250.043488 469.618103,247.296783 
	C468.928223,259.122375 468.049286,271.267029 467.124054,283.408142 
	C466.448059,292.278931 465.672424,301.142181 465.015533,310.014313 
	C464.602203,315.597504 464.491638,321.207947 463.918945,326.772552 
	C463.630798,329.572693 462.719879,332.180176 458.909088,332.335938 
	C456.871826,332.419159 454.872406,333.429352 452.459534,334.062866 
z"/>
<path fill="#D6CC55" opacity="1.000000" stroke="none" 
	d="
M490.363983,15.947174 
	C490.066040,12.918848 489.479401,11.231603 485.219238,11.472261 
	C479.049561,11.820788 472.804321,10.832261 466.230957,10.193732 
	C467.915192,9.654972 469.975586,8.990364 472.001526,9.082665 
	C478.231689,9.366510 484.448669,9.940022 491.006958,10.425863 
	C490.915100,12.183653 490.822723,13.951763 490.363983,15.947174 
z"/>
<path fill="#DACC52" opacity="1.000000" stroke="none" 
	d="
M178.110703,21.410778 
	C178.790359,24.251966 179.674850,27.534189 179.904251,30.861578 
	C180.207886,35.265659 179.998993,39.705078 179.980499,44.601810 
	C179.308426,37.340179 178.666199,29.606047 178.110703,21.410778 
z"/>
<path fill="#D6CC55" opacity="1.000000" stroke="none" 
	d="
M190.099472,167.403564 
	C190.780655,171.811905 191.538513,176.671173 191.936722,181.559738 
	C192.215866,184.986923 192.004364,188.454102 192.000031,192.351303 
	C191.332901,184.488464 190.677719,176.177719 190.099472,167.403564 
z"/>
<path fill="#D7CD53" opacity="1.000000" stroke="none" 
	d="
M188.102356,145.380936 
	C188.771408,146.511902 189.803375,148.087570 189.878067,149.707382 
	C190.115555,154.856430 189.996384,160.021927 190.005798,165.660400 
	C189.340103,159.375107 188.683624,152.610474 188.102356,145.380936 
z"/>
<path fill="#D7CD53" opacity="1.000000" stroke="none" 
	d="
M186.101654,119.438881 
	C186.783661,122.288467 187.670807,125.573456 187.902924,128.904099 
	C188.210159,133.312439 188.004913,137.756485 188.006866,142.664764 
	C187.334290,135.394424 186.674774,127.644516 186.101654,119.438881 
z"/>
<path fill="#DACC52" opacity="1.000000" stroke="none" 
	d="
M179.948456,45.442738 
	C180.616196,52.722618 181.313675,60.465706 182.004272,68.690674 
	C181.324341,61.417023 180.651276,53.661484 179.948456,45.442738 
z"/>
<path fill="#D6CC55" opacity="1.000000" stroke="none" 
	d="
M486.371826,61.914948 
	C486.464020,55.297279 486.929932,48.447773 487.605347,41.279022 
	C487.458435,47.867558 487.101990,54.775337 486.371826,61.914948 
z"/>
<path fill="#D6CD56" opacity="1.000000" stroke="none" 
	d="
M200.043732,291.467407 
	C200.700790,298.782196 201.329086,306.557739 201.903763,314.815430 
	C201.238434,307.507782 200.626709,299.717957 200.043732,291.467407 
z"/>
<path fill="#D6CD56" opacity="1.000000" stroke="none" 
	d="
M198.048279,265.459534 
	C198.690598,273.119507 199.298035,281.241730 199.838501,289.842621 
	C199.185501,282.188110 198.599442,274.054962 198.048279,265.459534 
z"/>
<path fill="#D6CD56" opacity="1.000000" stroke="none" 
	d="
M202.047241,316.410431 
	C202.716965,318.922363 203.187759,321.935760 204.023361,324.844330 
	C204.658310,327.054504 205.757217,329.131378 206.895157,331.545776 
	C205.760666,330.924805 203.399139,330.218475 203.177689,329.091644 
	C202.392197,325.094269 202.337036,320.953339 202.047241,316.410431 
z"/>
<path fill="#D6CD56" opacity="1.000000" stroke="none" 
	d="
M195.612488,241.444489 
	C196.288788,245.457672 197.336029,249.888031 197.899780,254.379074 
	C198.269791,257.326691 197.941315,260.362000 197.855286,263.835236 
	C197.115982,256.837433 196.447037,249.362442 195.612488,241.444489 
z"/>
<path fill="#DACC52" opacity="1.000000" stroke="none" 
	d="
M184.054260,95.446762 
	C184.735992,102.381760 185.373260,109.781075 186.001465,117.651642 
	C185.331528,110.718948 184.670654,103.315010 184.054260,95.446762 
z"/>
<path fill="#D6CC55" opacity="1.000000" stroke="none" 
	d="
M484.906738,77.558945 
	C485.038910,73.207314 485.238159,68.435921 485.632111,63.316216 
	C485.542480,67.691673 485.258148,72.415428 484.906738,77.558945 
z"/>
<path fill="#DACC52" opacity="1.000000" stroke="none" 
	d="
M182.084595,70.381142 
	C182.434479,73.813744 182.711044,77.709579 182.949524,82.065521 
	C182.611374,78.631882 182.311325,74.738129 182.084595,70.381142 
z"/>
<path fill="#D6CC55" opacity="1.000000" stroke="none" 
	d="
M489.360321,27.940434 
	C489.058807,24.531801 489.127380,20.883648 489.513275,17.056145 
	C489.797211,20.484835 489.763824,24.092876 489.360321,27.940434 
z"/>
<path fill="#D7CD55" opacity="1.000000" stroke="none" 
	d="
M311.033875,361.333954 
	C314.146118,361.749390 317.456116,362.510742 320.919067,363.602631 
	C317.791870,363.182068 314.511749,362.430969 311.033875,361.333954 
z"/>
<path fill="#DACC52" opacity="1.000000" stroke="none" 
	d="
M183.032852,83.404984 
	C183.353256,86.418022 183.651093,89.892044 183.896210,93.831802 
	C183.565750,90.820358 183.288010,87.343163 183.032852,83.404984 
z"/>
<path fill="#D6CC55" opacity="1.000000" stroke="none" 
	d="
M488.366394,39.918427 
	C488.149536,36.672707 488.303375,33.193642 488.647339,29.356125 
	C488.804016,32.560143 488.770538,36.122608 488.366394,39.918427 
z"/>
<path fill="#D7CD55" opacity="1.000000" stroke="none" 
	d="
M329.011536,366.320984 
	C330.019989,366.201416 331.214752,366.418610 332.683655,366.874390 
	C331.704498,366.961273 330.451172,366.809509 329.011536,366.320984 
z"/>
<path fill="#D6CD56" opacity="1.000000" stroke="none" 
	d="
M207.968750,332.308014 
	C208.682068,332.135864 209.563461,332.295990 210.728653,332.639740 
	C210.053909,332.762360 209.095352,332.701324 207.968750,332.308014 
z"/>
<path fill="#D6CD56" opacity="1.000000" stroke="none" 
	d="
M215.004852,334.307251 
	C215.715088,334.164246 216.600021,334.344208 217.756226,334.731018 
	C217.078201,334.835266 216.128860,334.732727 215.004852,334.307251 
z"/>
<path fill="#D7CD55" opacity="1.000000" stroke="none" 
	d="
M307.014679,360.316284 
	C307.727234,360.142914 308.608551,360.298157 309.773376,360.641174 
	C309.099060,360.767609 308.141266,360.706268 307.014679,360.316284 
z"/>
<path fill="#D7CD55" opacity="1.000000" stroke="none" 
	d="
M321.836792,364.470947 
	C322.548645,364.264099 323.491760,364.354401 324.746704,364.631714 
	C324.061737,364.801880 323.064850,364.785004 321.836792,364.470947 
z"/>
<path fill="#D6CD56" opacity="1.000000" stroke="none" 
	d="
M211.995331,333.303680 
	C212.440781,333.144928 213.031418,333.300049 213.871689,333.641052 
	C213.461044,333.757141 212.800797,333.687317 211.995331,333.303680 
z"/>
<path fill="#D7CD55" opacity="1.000000" stroke="none" 
	d="
M301.016663,358.306976 
	C301.438690,358.161285 301.997070,358.315643 302.791901,358.643188 
	C302.403229,358.746643 301.778137,358.676849 301.016663,358.306976 
z"/>
<path fill="#D7CD55" opacity="1.000000" stroke="none" 
	d="
M303.992371,359.298828 
	C304.425293,359.144012 305.006958,359.295776 305.833374,359.630127 
	C305.432434,359.743652 304.786804,359.674530 303.992371,359.298828 
z"/>
<path fill="#D7CD55" opacity="1.000000" stroke="none" 
	d="
M325.984436,365.297363 
	C326.426727,365.141144 327.023773,365.295898 327.872833,365.637817 
	C327.462952,365.752777 326.801117,365.680542 325.984436,365.297363 
z"/>
<path fill="#FEDE28" opacity="1.000000" stroke="none" 
	d="
M447.201477,237.378967 
	C445.458191,257.179443 443.030457,276.499298 442.468750,295.873260 
	C442.213562,304.675049 438.809906,307.185211 431.267883,309.262115 
	C400.634094,317.697906 370.181274,326.790558 339.656433,335.622620 
	C338.421631,335.979919 337.132965,336.151154 335.302185,336.524872 
	C335.185242,334.360962 335.006470,332.594025 335.006226,330.827057 
	C334.991730,236.051010 335.024811,141.274902 334.898346,46.499031 
	C334.891785,41.582554 336.114044,39.861050 341.302917,39.888016 
	C380.111725,40.089745 418.922119,39.993282 457.731995,40.003334 
	C463.980347,40.004951 464.400543,40.128933 463.933167,46.518433 
	C462.953064,59.917522 461.536194,73.284279 460.346191,86.668533 
	C459.523163,95.925209 458.818878,105.192459 457.992126,114.448784 
	C456.412933,132.129349 454.711731,149.799316 453.199371,167.485489 
	C452.025848,181.209717 451.129883,194.957550 449.982452,208.684189 
	C449.194855,218.105759 448.187683,227.508972 447.201477,237.378967 
M349.191589,319.228271 
	C355.501801,317.813782 361.820465,316.435974 368.120605,314.977875 
	C387.229248,310.555389 406.348572,306.174896 425.399506,301.515442 
	C426.854767,301.159515 428.751465,298.803162 428.845764,297.277863 
	C429.768188,282.359467 430.325806,267.418884 431.041931,252.487213 
	C431.344330,246.181564 431.802429,239.883530 432.145447,233.579636 
	C433.111145,215.832199 433.933197,198.075699 435.087158,180.340668 
	C435.389801,175.689514 433.633636,174.828476 429.412415,174.904190 
	C415.586426,175.152176 401.751617,174.879364 387.923767,175.067474 
	C383.959320,175.121399 382.866394,173.889771 382.921661,169.891190 
	C383.156464,152.898239 383.192322,135.896744 382.887604,118.905777 
	C382.799133,113.971146 384.385071,112.791817 389.094574,112.894737 
	C402.918396,113.196838 416.753998,112.917015 430.582916,113.062637 
	C433.841064,113.096939 435.484436,112.081223 435.973358,108.781555 
	C437.215485,100.399124 438.656830,92.046371 439.984344,83.676331 
	C440.406158,81.016663 440.720459,78.339943 441.136749,75.283455 
	C438.582520,75.160080 436.948486,75.012932 435.314392,75.012390 
	C407.820129,75.003235 380.325226,75.109512 352.832306,74.920563 
	C348.317780,74.889534 346.890503,76.024193 346.910736,80.722733 
	C347.093506,123.213043 347.021149,165.704453 347.023499,208.195541 
	C347.023651,211.143280 347.023529,214.091003 347.023529,217.753601 
	C364.766205,215.272156 381.818817,212.955521 398.846527,210.468124 
	C404.681030,209.615829 405.224091,209.762207 404.971375,215.834213 
	C404.405304,229.434830 403.800873,243.039505 402.774384,256.609406 
	C402.616211,258.700531 400.551361,261.741302 398.666016,262.435455 
	C383.072113,268.176697 367.367767,273.638031 351.561676,278.767609 
	C347.970520,279.933044 346.866943,281.492188 346.928223,285.037445 
	C347.100861,295.032013 346.923706,305.032257 347.041199,315.028442 
	C347.058136,316.466644 347.939636,317.894714 349.191589,319.228271 
z"/>
<path fill="#FFFFFC" opacity="1.000000" stroke="none" 
	d="
M321.010834,133.000000 
	C321.010834,195.265900 321.010834,257.031799 321.010834,319.627167 
	C314.422241,317.974365 308.514160,316.540436 302.631714,315.008118 
	C279.527405,308.989746 256.430573,302.942505 233.332748,296.899231 
	C231.087540,296.311798 228.943253,295.980164 228.970688,292.631165 
	C229.118057,274.641327 229.053238,256.649811 229.085297,238.658905 
	C229.086441,238.019501 229.335602,237.380554 229.583450,236.194519 
	C238.778214,237.704254 247.890488,239.060593 256.918060,240.845230 
	C258.161224,241.090988 259.781677,243.416748 259.862732,244.856369 
	C260.199249,250.834976 260.235474,256.854156 259.936768,262.836182 
	C259.749207,266.592133 261.168915,268.251343 264.745209,268.820282 
	C271.915100,269.960938 279.052429,271.305969 287.025055,272.711487 
	C287.025055,270.599945 287.025330,268.691376 287.025024,266.782776 
	C287.014679,204.811172 287.048370,142.839447 286.901062,80.868164 
	C286.890533,76.439568 287.789490,74.683662 292.602448,74.885216 
	C301.737579,75.267761 310.900116,74.995972 321.010834,74.995972 
	C321.010834,94.372322 321.010834,113.436157 321.010834,133.000000 
z"/>
<path fill="#FFFFFB" opacity="1.000000" stroke="none" 
	d="
M348.806335,319.277863 
	C347.939636,317.894714 347.058136,316.466644 347.041199,315.028442 
	C346.923706,305.032257 347.100861,295.032013 346.928223,285.037445 
	C346.866943,281.492188 347.970520,279.933044 351.561676,278.767609 
	C367.367767,273.638031 383.072113,268.176697 398.666016,262.435455 
	C400.551361,261.741302 402.616211,258.700531 402.774384,256.609406 
	C403.800873,243.039505 404.405304,229.434830 404.971375,215.834213 
	C405.224091,209.762207 404.681030,209.615829 398.846527,210.468124 
	C381.818817,212.955521 364.766205,215.272156 347.023529,217.753601 
	C347.023529,214.091003 347.023651,211.143280 347.023499,208.195541 
	C347.021149,165.704453 347.093506,123.213043 346.910736,80.722733 
	C346.890503,76.024193 348.317780,74.889534 352.832306,74.920563 
	C380.325226,75.109512 407.820129,75.003235 435.314392,75.012390 
	C436.948486,75.012932 438.582520,75.160080 441.136749,75.283455 
	C440.720459,78.339943 440.406158,81.016663 439.984344,83.676331 
	C438.656830,92.046371 437.215485,100.399124 435.973358,108.781555 
	C435.484436,112.081223 433.841064,113.096939 430.582916,113.062637 
	C416.753998,112.917015 402.918396,113.196838 389.094574,112.894737 
	C384.385071,112.791817 382.799133,113.971146 382.887604,118.905777 
	C383.192322,135.896744 383.156464,152.898239 382.921661,169.891190 
	C382.866394,173.889771 383.959320,175.121399 387.923767,175.067474 
	C401.751617,174.879364 415.586426,175.152176 429.412415,174.904190 
	C433.633636,174.828476 435.389801,175.689514 435.087158,180.340668 
	C433.933197,198.075699 433.111145,215.832199 432.145447,233.579636 
	C431.802429,239.883530 431.344330,246.181564 431.041931,252.487213 
	C430.325806,267.418884 429.768188,282.359467 428.845764,297.277863 
	C428.751465,298.803162 426.854767,301.159515 425.399506,301.515442 
	C406.348572,306.174896 387.229248,310.555389 368.120605,314.977875 
	C361.820465,316.435974 355.501801,317.813782 348.806335,319.277863 
z"/>
</svg>